<mxfile host="65bd71144e">
    <diagram id="KqrSa5PC9jDI3UQ4TcIW" name="Page-1">
        <mxGraphModel dx="1354" dy="1020" grid="1" gridSize="10" guides="1" tooltips="1" connect="1" arrows="1" fold="1" page="1" pageScale="1" pageWidth="850" pageHeight="1100" math="0" shadow="0">
            <root>
                <mxCell id="0"/>
                <mxCell id="1" parent="0"/>
                <mxCell id="2" value="" style="shape=image;verticalLabelPosition=bottom;labelBackgroundColor=default;verticalAlign=top;aspect=fixed;imageAspect=0;image=data:image/png,iVBORw0KGgoAAAANSUhEUgAAA1YAAALLCAMAAADNDeNwAAAAq1BMVEUAAAAAAAAAAAAAAAAAAAAAAAAAAAAAAAAAAAAAAAAAAAAAAAAAAAAAAAAAAAAAAAAAAAAAAAAAAAAAAAAAAAAAAAAAAAB6yUM/qfUAAAD////t+OaM0Fzl9P5ZtPb2+/Lc8c3B5qeDzVDT7cDk9NnK6bTy+f6l1/rM6Pyd13W/4vym24JMr/aV1Gmv34644puy3fvZ7v2Z0fqMy/l/xvhywPhluvcaR2crdKj4BSFpAAAAF3RSTlMA3YDAQCFmzUSa7ruIETOqVXbgEFAw8f2lzdoAAC92SURBVHja7N1dj5pAFMbxc5ogMoBomrRzSMZL1hgvfOum3/+TlRnEqdXaSrXxrM8vqUPhcLG7+UfBfSGA/8z+GwIAZAVwBlkBPD9kBfD8WSVc0N8a5yadEMBHc/esRsJ0albRZVPhLCsJ4KO5e1Y0mtCJRJguY8FTFXxID7q2up5VPADwET3g2oqJSq7Kgk2VEBUswlyEKym/hoNJxckoHBjRKGeTT8ibZMxpdhwFUOr+WQn7h5y5YjEJTTORopiGK6kil6o7KJyMw4HxRNKs8oNEI5G8qPI4CqDTo7KSnIgqybodrdKkRJTJ2B9MEzoeGPug/OBEOKHTUQCVHpZVQiGUYz0zmYajlT847icPSkmJchmR14/i6Qq0elRW/Ot2LqVfDLc7THmS1WQ6M0zE3UQcxR0NUOq/ZWWEPeF+R7+GWxdxdxzFjULQ6r9lxVIEs1+ymkk1KYmZSiMlBXEUQKX/+CIwoTgRVzb9C75UpkT9KIBij8+KTKhkJNWlrEqR8vAdT9P+TuAINytAt/+QVSVcTcOSFRUnp1mF3bkxfjMTyYs8PY7iOQuUun9WzIeHfikrw9N2neZs0izpD/ZrwVwllSn7ieI4iqwoeq6v+81e7AeQXuzDBWR1wbN9egl0srqQMi/24QKyuuDZPr0EOlldSJkX+3ABWV3wbJ9eAp2sLgSggNWFABSwuhCAAlYXAlDA6kIAClhdCEABqwsBKGB1IQAF7HBz524ai9t/hqxAMzvcvPaN7BarP4/FbWQFL8AOExtx9dweICsAZAUQPFtWO1fXzi2ttd8Wzr3Zllusls273S9ds3g/jG03brM7bMfZK5AVaGaHiFl9e6vr9VtbzL52b4va9+U2i9q9r+rNelk3cz/WbNx62dTr7pQ4e8VHyerrvyHQyQ5x/iJw1Wzax3X9ze9w/kmq3bK7LqV6sWoXV++7U+LsFcgKWSlmhzjPalvvw56l37GzB6t6E7J6t2Fk2Z0SZ69AVshKMTvEeVaLemVbjet2BO/7beP6sbB223H2CmSFrBSzQ5xn1dTOq2NWe38zoz7PKs4iK2T1UdnBYlbh8S3Y9jt29eLbyrpLWcXZ30NWAV3D+L20T8sOc/4icG6DfscmPDYhK78Z7l/4U+LsNcjqL7LCnyh4WnaomNV7aGZ5mlXjd+/rLquln/aD/pQ4ewWyQlaa2WFiVm+1W26tXdZu/bZ085BVt3u9aJqQ1caF9622h1Pi7DXIClnpZQeK346+btyuXfYL12zWPquul+2mWc6Xzcqu3Hq+ds3iWzylm0VWw7JKspS5Kg9ZjXI2+YRa45w5Hx9W/L3t2zxPVv8MWQ3JamwkLyqmLquJpFklpt0aCWcZT48r3ABZqXL/rBJjJj+/CByTLyqLf3Lbr3ArZKXJ/bPKZHZ2bVVKGv6LS65nYXUhZe6fVSrJL1lNpjPDRDMx2Zi6FVdWN0NWitw/K/4lqxGLsLDfMiJ5eVjxQvBWyEqPh2c1k2pSEjO1ymkq2XGFmyArRe6fVXV6bcWGWoYpKMUcV7gFstLk/lmN5ec7gaVIGe6tEyXU/pP0uMItkJUm98+KZhLetzq8HVwJZ7kxTKVJs8zI9LDifaubICtVHpAVjStu0ykP38FeMFdJZcqySA1XY+pW3Aq8EbLSBD9v9ZqsLqQMsnpNVhdSBlm9JqsLKYOsXpPVhQAUsLoQgAJWFwJQwOpCAApYXQhAAasLAShgH+O7fQRkBa/s85dPBAB39UnwCxUAfrB3d71tg2AYht9XnY35sImz7uD5/390wcirPLKVRHhl7XOdJAWaAyu3qkAjtzUAeBEiasji5lWIqJkfSK7fhYhaecGGuxZEzXzDhrsW73vlX3SqZJBw14LnENTOiA13LXgOQe1c8ctViOcQ1AyEeA5BzKoOzyGoHrOqxXMIqsas6vAcgh7ArCrxHILqMasqHZxDBB3k7wZVoU+JWZ11DqEY38sK+lzovNdc75jVWZdpGaV9Vrzp8P+BWZ13mZjVl8WszrpMqoOIegmqfpHFq5lEZNY4B6N+fMtq8qpBpFj8+9xq3G0u34NYY57zvJFPl5jVWRQpK2OcN8DFGQ9MKSVv1EYHu2d1gQaPKMXi45zmuUWmANgwygi1VnnXuS4xq0LTrGBmkQgEkRU+pQQ/iwyKKWc1OyMiFlO5uJwL8Psri4IbF91iVlWmp7NKv7kgJTDDbVkteds+5qxWXCQNx2JxOZdG8yvzE1bfmFUVPJ3VsIWh+8j2NA/l5x6z3DgtFxdzhxdd4Sw/WXWKWX1wVg6a4E5Wh7kiKxkdwBOsPjGrD85KETZrufgwV2Yl88XACnWIWdVpl1VuYoXNwz79nJSLj3NlVvmzFnWIWRXOziqmEcWSh0fEP2W1z5VZLSKS1xqhDjGrKlO7rJzbzq3WfThCbYh6Z3E5lx8CNK6zM9Y68NyqS8zq3P+y0K0U1X1kgA5WnZ/ehi9enbF3Fhdz+4N1Os7BOI3cCuwTs/q3l2kAvwzyBTArZkX9vl+IWRGzOgm/EUzMqhK3BohZ8TLRI/h+qcLLRI/g+6UKLxP9ZO/eWlsFojAMj/vQ7DRtQ7MPLBeMl+Mgc6Ex+v9/2nZGzKEp1gmUZhbfcyFhSbwQX0gGYWLgeQG4f8gKAFkthJVAiICslsBtghh4XhbBbYIYeF4WwW2CGHheAO4fsgJAVgD3D1kBICuA+4eslvmDfe5hOWzfvsjvf7hRMlFalCjfsM+9UJQWJclP7HMvFaVFSbIe97kHeSgtSpC/ubfDqoVAlBYlyPc8wKqFQJQWJcePPMCqhUSUFiXHKvewaiESpUWJ8ZAHWLUQidKixNjlRzsFwlBalCh4x0sqSosSBVlJRWlRoiArqSgtShRkJRXdxLVW66Yu6Eyh9XiYU+iS5iErSB/dotNsbNVwfVEM6/HwvtY6f2RNs5AVCEA36Ni0vhHnIrLSXIS6epqFrEAAiucMT23EZzUPWYEIFG/PJZ10lda2e5NVZ7UuKehr/y+s1cxaV9N/r77Sxh5CbZb2jbHHTpHV58gyvHo45+uzarg/b8zUteH9RVYH1qXligYtsy0r25XMddn682Foqlpz7bPSQ1QNHy+JrG7wuv04K7zRO+vLs3KGHU06bhxRobk/y8qZhohq7oh61sXpR2A4Pw1dwwc/9hco2VKArG7b5x5Z3ReKFsqYWD7QYM/VWVb7MCy48udbusqq5j0NDmz9uPOpsqEAWSErCSjWZQKG3ZTaKSs7Do321bjrrMLHcCE3fp5GyOpjvzZZ9uR/+GXr4ficZc9PWZ6H2cs6y1YPYbodpo/bsaTX1ePmJWQVvrzBrlqfj6JNCUw5XWdlWHvT7L2sphGy+s+++bQ4CwNxeOZgbf41essIvkddZA92u/T7f7TXScAqlWU9LK1hHhDDDDk+JPlFd1IRWkM+rj9nAEU1VIrI2grOpJUtSfHyZRA9kmaVFKEymlir0zRUWIHwzMu1Gh9J4OfmatU2feSL+z+uVkG02ofTJZvCRp0Jp8fMm0CnkS3yU68gMnGo2MM0g7VCciBs83Kt7k13fzpbjatN4OwIxxJPWg3z2Uq02klNVfTIA4ClutTFrFVNJ5i4kGetCh5y3bCC4KaKHLB+4PVahb7poiyfnxylcxLYrZLAG4cVie9FEnh/JIEdJ4FTWiFa7cSk9UYjq4JENcxacSv1uDDXdSwno2rSSk5Wm7yBVpNXTcvfBPa8I+zGoWtuq3uroWnHfohCjXxv9XHlOe3wxf102TXEyy7RaieakEnaWCL30AoJI7TSip9ZKzhpIiMbwS3eQKtw769ddx04G//+6NrhvvqCnYttdx3/zcOeBevaW+qnrzDi7NCyfPwSrX4Dko3UbI3W5Jda2US91MrRY7WacBVnGsIz76DVXyBa/QJDxWJ8Lumc9Fm1llpBSZf5bMU40iBsIFrlwn6tTuSXw0vyR6f0vHQbWtVk5iSwiMUShC1Eq0wg2I0nVNZjAU5rx7rYVPQVq2Ms91ZagSFUBg3xlFIpTXJvtYVolQ0E+6kMTnYUoLCOaaC+ADivsQI4e0TkXoFJq/SyiL7w6MDZUqOXKHAT0Sob5H+rXAnHArJCtMqVcCwgK0SrXAnHArJCtMqVcCwgK0SrXAnHAgThAIRjAYJwAMKxAEE4AOFYgPCfnTs4QRgKgyC8JIp4EozCbv+N6ksN/2XJfGXMYVDAXQQUcBcBBdxFQAF3EVDAXQQUcBcBBdxFQAF3EVDAXQRc1esQgFFHNgEYtYXXNzDrnmQXgEHP/H0EYMw3y5tqAczZs1AtgDm3nKgWwJxHFqrFj507RlUgCoIo+lH5YKjZ2/9GBQOhoZKCCTo4ZwkXCoaBfnCd//PlrwVc531+3n+AZyVhL7MCs4L9zArMCvYzKzAr2M+swKxgP7PiArctXo8VzmORNYdfTmVK57bE877CuS9y1nAq46NHD1U6gk16JKqUBJv0SFQpCTbpkahSEmzSI1GlJNikR6JKSbBJj0SVkmCTHokqJcEmPRJVSoJNeiSqlASb9EhUKQk26ZGoUhJs0iNRpSTYpEeiSkmwSY9ElZJgkx6JKiXBJj0SVUqCTXokqpQEm/RIVCkJNumRqFISbNIjUaUk2Iede8ltHAaCMOxjFApoLUmC4EJPz/1vNokmki2mMxNajse0+ttE4C4/UoBNAdmyHhqrUs7+A9w1+wNSWJXvQV1Omjqi/MLP0KLUUWRVYxHrZVGsyN9ZL4VFyVmRMtZLYVFyVqSM9VJYlJwVKWO9FBYlZ0XKWC+FRclZkTLWS2FRclakjPVSWJScFSljvRQWJWdFylgvhUXJWZEy1kthUXJWpIz1UliUnBUpY70UFiVnRcpYL4VFydVRpA9Ouh53Z7N6zl6oy+mTGoqkji4E4RnX+ojdbFbP2Qt1OX1SQ5GWLd5sV9VQsJvN6jl7oS6nT2ooIkzI2Ky2GllqeGnwY2xWinpndcZiCiIegBdyftrldWZFWWMNuBhCwh3ZrBS1zsqzW3Y1UnxgBMaW9H7EPi84q/OAK8IGd1TFrM6tiLQTHqXWWaWODOP85DoALSf7ELil1zjkrFq64APp8SC1zgrohZQJ6DkCaBhtVluXGiINgKFzYcIgpEjE3VQwq5ZdAtAIezxGvbMCpkCeEZjwxonN6tpmVmyAgV0rIyZPtn7A3Tz/rCZK+ijCBg9R86wAzwBHeUeb1UY2q/Xu9IAfAiN7/NGyXy5I5x/rdZd6ukPds2roIPSz3ma1sFktsl94YpizLHXW6y799Ha1z0oQlmg2q4U6K08ZDjmrRJewJtkM6HLdpZ/erNZZDQlACvQYGLFwbLDXq84K3rFLB5zVmQLos7pcd+mnN6t0VonsYnAMACKl9VGaP4/R3ltBnxVSZDzgrBo6AOqsLtdd+unNKp0VxigiYcC7MYjr2gZAik5sVoA+K8C5A84q8cvvVut1l3p6wFn9y5MX+Q+zaoA0nwjP2K2iWSFc3wRuBiT0s69OC9msMq85K8bZPKvkgu84APCU2GOnmmY1ru+tnEvLF/AzBZfrLu20nM0q85Kzkg8QaZB8J2HEu9bJoV4HIzKkOQgHAIEeSB0F63WXelrOZpV5xVl9pdJe2CHSRR/oeryZyC64TgRX11366bfYrJ6myG927mAnYSgIoOgTLEiILigahoStIYaFwYD//2e2hjTpOH19o4HW9p6dLm86M7UL6XXbKKe33et2u/84H8of9uV/a9iXA1R97rJ+y1j90PMi9Lp5lMPpvZis3eYaGKt+FKFXJ1HOx+PmWhir7ovQiygUiaOXgSgaRXzoZSCKRhEfehmIolHEh14GomgU8aGXgSgaRXzoZSCKRhEfehmIolHEh14GomgU8aGXgSgaRXzoZSCKRhEfehmIolHEh16GbqJ8bvoiGHhM8B/lMgmA0zoPiJiIZESFT/7CMo7JRGTqnqphXziWRtoyRqOFFNbBZznoqMUmZhBTljGaPEtplRO1vol5JUpZxmgwlW8TotaXBq9ECct4ZCc63b1cZEStLw2ud+syHvYf2H8xl4spUdXS4Hq3LeORneh0M6msiVpfGlzvlmU8thOdbiWVFVHV0uB6x5fxyE60lxDVXBpc75RljAZCVHtpcL2bPS0CoiTAXBpc72azeQBj5SJcb8aqg7F6WIYh+02RMC7ZLCBK2FWKcPLRxVjdhSFjrNDFQ/Q47FcAxoovgXyyoEgSPllE8RB9sWMHKQjEQBREBV24Fxy8/0UV3PUiCTg4f5JXR2h+BVIFFxmAVh0SRjR3ClQClcCfeXms/K0QMKLJUyCtsMOIpEBa4fgRTY6LCOxG5CJDKIFNEkakBC5eAmmlBPpbfRDY2wSMSAlcXSsogbRCj4QRTY6LKIFG5CJDSBZNjKiQcBElEAK7v5USWAgY0eSPFa0gsCdchFYQ2DmiBBaMqOAiQ0gWTYyokHARJRBKoL+VElgIGNHkjxWtoAQmXIRWUAI5ogQWjKjgIkNIFk2MqOAiA9CqQ8KIlMDFA7sSqARKFuiRMKLJS+DzQSsogTtzvdFKCfRBvxyu1WrM/Qug1Rda9aBVj0O02s7Fv7W6L3ZBJZBWGX+r7VxcQCtaRV0QtKIVrd7snN2O2jAQhbnsG4z2jKXx70UUJbz/27Vj0pBQ70LbZTHLfBcbGDtIjPOJ+ID2cDCtOtTq1TpoAbtpZVr9A5YEmlYP1+rVkkDTyrSyvZUF7FcxrUyrP+mrg4ZpZVqZVoeDadWhVq/WQUsCTSvTyiKLq5hWHWplSaBhWtneypLAC0wr0+pP+uqg8f9aRZ+Fc4i0EthRA8eBmkyFmctADV5cK8dMFWb30XglhlzX4UZMqy3daeWAEjI2686YqcEMvQaO6bJeID54INBf0JdWyl20wm+t4D4YrzhBThkj7ajtbmNJ4IYOtdKlDUhrZZqpyTwts3cU5KgvwzjS7ZhWl1p5zFppTWhjkcWGTrWK19evvc4DOC4jcHQrptVlNyOEFkyrx/NJWtWFZx+TTMtGwJXMXCZdcU4usXPMFBhgDkcOVSn2lNYPqaKPlnOZ67hnndiq9qXVjy/Rakza0erXnMUPp/FjluRUK0RSti1a2k1NLAnc0qdWUYSIswdPyzUA1B3TrDM8g51OHAsQwuggsYo018knBvh6/ayvOYKDR6JmtSut3r5CqwhOIUOcblNz4VHHJbPnWvNI1atti5Z2UxOLLDZ0qtXiBE/LNeAgGu1NgokckF2duF4ovm6tRWKExPML7QSKkqt6Q7vamVZvb28/Docfvw7L36VU/36KVlTfckDRp3EZ17ZT0ppjyLGW1xZduQk0rc70qdXAGNYIkOHqHZ1yRCEHHdxpNSKpiokmfd7W6oixPkztamda3enTClw57zsj8karWl+aGAsgI21adE0rSwJXOtQKIpDj4tNyYLjVFQeJF1pFRqSCQcfe08ojalneqfaklXInrXJl0SoO81HfeQDPa8vO8sQAjJsWWWRxMx1qJSHMkT7SimmrlRIw13WPeHdvJWAF3Ky+iFa7m8AMCNdSEOS416oybltkWt1Oh1qxHv5SK4c8QCMqv00CdwIxQuWdak9afUkSOCKPjohrKSakhlYkcOcWXdPKksAzz6GVOqIElJZWNbiqs8f1eyuRqOcOvzcLXseVdrUnrb4kCcxw29tfkYZWERLPLbLI4maeRKsJ1YQBcPvFlzrnFMCTkuCjjp7yjoJEFL1OnZFIaVVfUSvBpHmElpwKxHut6n14QNq1qLa7jWm15Um0ohnwwWs0tdcqgdNYU2DooVYkBX8KPVTH7CXzMrWExK5dfTmtAqSULMIUxYeMedfZCfCJwW7Xotpu+97qOv1pxWet2J0PU2HOxS0z1kNMwiet1tOGxAL4eYp6mpd8JF8HR8+Si2tWu9JKuf8v2Of6C/UkMYbMfrzo7OxZh2nTorXdbSxgP9OdVv9IwUxn4lAEYPoUvo9Wj8KSwCfVKsBflqbjkT6F75MEPgrT6im1inUTcC++z97qUVjA/pRakS+R7oRp9fAOGva/LEwr0+pwMK061OrVOmhJoGllWv0tFlmYVj1oZUmgYVrZ3upDLAk0rUyrn+zcXYubQBSH8WGhpYVS6NVpzxFGR70Q0Xz/b9foNE3JZMkLGx3r81zEsNmblf2x8Z9spvI6gwQrWMHKOVhlyGpnZ5AhEFaweiYWC1jBSgRWWQUrBvYrMQTCanVWTBYEK1jB6iJYwep6LIEZBSsmCyYLBytYXSsfVrKt3Ev65egDlsBd9ekzrGCVxbXVfpJt5WKwSoJVTsm2cjFYJcEqp2RbuRisklZntbO+f4UVrGD1eCyBsFqd1c6WQFjBimurKQZ2WD0arHJKtpWLwSoJVjkl28rFYJW0OqudxRIIK1hNMVnA6tFWZ8USCCtYcW3FEgirm8Eqp+SJOrNe7qsw+3uvkjuCVRbBanlWlWot91WoSWxUk3NjGeRqsMoiJovll0Az84mKW6xkHOScaSFXg1UWwWrxyWLQttVeYvexisFqM7EELs6q0r7XOuooQ+2H06GvzZeDyMGqeAlW/mF1vsrqSrOyG03VrJY0WOXRtx+cxJtL4Jdfv6Yf+nj75c9t/NJzrExDUB/mu02pNvw5BG3aWn0hRXy01fHMKt4b1drW+q5SbatR0mCVR29vnMRlJ4tBS5FSuyjMhvOhkwlOOz3ai4j34ZKVaeBJ4BaC1dKsDnqY9UQd4/kwF7QRmZ8jdlpLyqqA1RY6sqJFl8BGC4nP8046zkiG/uBNJJgGabVLWB3Utx2s8g9WC08Wg6odU+0SVr2p2uyo0lG8ScJKRq9aBljlHqwWZnXQsjpWanvJatSyC2JRU9NpdYWVhL7RFla59/bGwL7oewIbHeIfLR8uWDXzrZ/1lFprkbCaC+phlXtMFstOFoPaiVd3wcpP4Pr4eK9aSsoqSmtETAdJglU2wWpZVgetTnfaC1aVWlv6+NcqeO0jJq3nZlbBN207P1Kp1Qe5DFa5BKtll8DShn/eNWEWWcXDofF1Ufsws7LTd8Xm7w9V463u5FjrjZeD843JIst/Y2x1lI8PVu8Hqxv9B6wqLeUFwer9VmfFEvhiVsHUCnlBsHq/1VlxEl/MSso2yCuC1fvBKqdkW7kYrJJglVOyrVwMVkmrs9pZfPwmrGA1tfkl8BSsNhpLIKxgdWx1Vjs7iXz8Jr8RsLonJgtYXQarnJJt5WKwSlqd1c5iCYQVrKaYLGD1aKuzYgmEFay4tmIJhNXNYJVTsq1cDFZJsMop2VYuBquk1VntLJZAWMFqiskCVo8GqwWLrAhWDOzuo5dAghWTBS0cz3hgRQ/0c1u5XHqG1b625+MSuN9+biuXSykrXtJhsoAVrGD1T7DKomeWwH2x2vUS+HNbuVzi2uqUI1jBClbXglUWwQpWsHJufVY7mywY2H+zd27LbcJAGGZ67kxvelx7FyIhgWOKwXbS9v0frUhygl3smqbYwcn/Xcgyu2gmM/kG9MMkl0M0FqAVkkBo1fDoWj2zJBBaXQ7RWMDeCgE7tIoiaHUPIosu0GoUQCtoBa2i6PG1emaRBZLAyyEaC9AKkQW0anh0rZAEPh8ml0U0Fh5xbxWLUCCVuFM5hEgchsONbd1j0kyy1CAJhFaHeUJasVBAuO5UDiEch+FwY1v3PYozm3FJ29TaILKAVi1PUauqptNppb2zcacBWp1Wq8V8nSSz9ernZHCepFbRoFoFTqeVYbW/AUngabW6Yv5+vVo342RooFUvrcJ+SdMyU7q6r6Rim7HQIimRnynJ4z1alVb8eaFZF75+t5ZhNuRpF6uFWcQisjitVon/mJ/Aq6eo1bvp1N0HNuO7MIZDO4V/0yqoIo0IGXO1qdScGaKSJdXsDFiysrko1dHKcJZbVrE7RfJcSlfXd2uRZhu8ahcrUuY8raHVqbXyJDz0feCT1KoPD9HKa5SyDpWKxRAZlRFRzgVVrJwkljtaUUHOqNwdDgJtr0WxsFq64+1ifgEkgWfS6jZcrn7Ok+R6EmazZLVIkqbHDf6j7egHtOqtVRG2Qr5iRMX+ElX6Tks5L8NJoVcC90sYzrZkEa7abZXJmVW5vRgii3NqteBZM/7g5DrcD97w7PsqSWaJ72lb247jQKv+WsWbuavokIjrcP1REsptbxbYLFGVSyXOG5UX902tPCZlLrcWg1Zn0iqQ8NVkMVs3sxX/nPzi5KqZzvkPrdqOHkCrB2nFijOvAIuDW632RRbCLH5WK2ZtOlr5XdXWYkgCz67VDf/wx7434ty4g7/+1Krt6AG0ephWhebUf0s9y79oVbMuDIlfzJQZ5x2tvJ9xu5iv4OWlc94Eznnh5rPESxbKu1q1HX2AVg/RSihWXBBpjilguQ4ndbTK/Bcl7XOqjlbuqGkXg1bn1OoXrxtbOHHwIa3aDmh1Sq2oZDFUs6VAwRLvTwIVV76bKPaHsl2takNEKVtqF3OVCkngmbS6dnd9CV97bg5q1XYcB1r9TSu2nv1akWXrBslT64zK/XMr0R2t0qZFKyUuQM9zxeXOWhWzthKcbBdLWewSkcU5tLqazRbuFu9qEvjOtz5N9+UZX4V9VujoD7Q6RCwbtt5KDx/hxXQjUhCVWhpbXKnWkqXGivnzDfZlpmxslTFppsQWtL2WP+3+BfZ2sVxJDa3OoNXPhG/bh1fBp8afxdqX53wd5qGjL9DqYojAwFrx6nqV8Ox2c5FKVtffnVErnq1WyZwT7xiv57N1kmx3HAdaXQwI2IfVarFOGuY3i0ngx9y9z+6kuZ0n65vF5mLm5pN50nZAq2ehFZLAIekmGsMBrUYItIJW0KoH+POb0Ko30OoORBZdLkerBFpBq2fK5LKIxsLHD+0cWiEJhFaD8OplO4dWiCygFbSCVh2g1SiAVkgCoVUDtLoDkUUXaDUKoBW0glYN0OoeJIEdoNUogFaILKBVA7TyQKu9QKtRAK2QBEKrBmh1ByKLLtBqFECrO/BD/g9fPkdgRyvgOZwEQqujfP72IgLQqj9v3kKro7yYTl9HAFpBqwF5PZ1O8YsErXoSkkBodYz304YvEYBWyGUG4+vU8QmpBbSCVsPxcupBagGtkAQOxqupB6kFtEJkMRxvpw6kFtAKWg3Hm6kHqQW0QhI4HJ9arT5FAFohshiMaQSgFbSCVrtAqzFBl0UE9gOt+oCAHVr9G9DqKEgCz67VuwhAq0fSKhahQCpxp3IIkTgMm86U9oK91XiAVucM2Lf/uX/dqRxCOA6Dp97tXFoKQKsRAa168G46db82zfgujOHQ/2hV1fRAraiuOuf15uBPcqDQqwytoNWAPFSrwMO0OnweIosRAa3OmQQGCdr9kqZlpnR1X0nFNmOhRVIiP1OSx7taxSKbHl1QKsx3zdBqPECrc0YWrVZBFWmkypirTaXmzBCVLKlm59eSlc1FqV2tQqfkuZRU5sxpWpIHSeBogFaPqZXXKGUdKhWLITIqI6KcC6pYVURkuauVsBnXTSD2VtBqFEmgV6UgIsPKV4yo2F+iSt9pKeelP2mvVjG0GjHQ6jgn1CrezF1Fe59IhwuRknt3pKvVklVeQKvRAq3GohUrzrxPLA7+q1ZUK2ZtxqMVgFZjSAK7WhWaU/8t9Sz/qhWZMuMcWo0UaPU4kUVXK6FYcUGkOaaA5frA3spjWI1HKySB0GqkWlHJYqhmS4GCJT6QBMZ+kjWj8scD2FuNBWh13iSQrWe/VmTZukHy1Dqjcv/cSnTo1dZhXKdRWZ4rLsl32xE8t4JWv9m5g9WogiAMo73RFxBs4QpJZrIJgu//eE5gGG7BJNWNkFudnLNxoZtp6hPmJyqr4yaL7Sr8VPrll+vPTpy27aX3P4/bJZvX3/r7uD0/nc7bqfft6vfrnzw9PT9s55d+cTo/bLKqRlb+dTCtyWpE0SXwcI03yCpVdrI4XOMNsnqfrAzsh5OV/37TZHEhq0r6WtqNrCJZVdLX0m5kFcmqkr6Wxn2yyhnYZTVLVilLoCVwlqwSsvLdap6sMgZ2WU2TVSV9Le1GVpGsKulradwnqwGWQFlNklXGZGEJnCarhKx8t5onq4wlUFbTZFVJX0u7kVUkKyhOVgNLIMgqMT9ZYAmUlayG+G61J6sPEJdAZCUrcrKKZAXVycoSSGuySpksmCWrhKwGGdj3ZJWxBA4xWezJinpkFfz42UBW3gOqk5WBnSarEZbAAZbAHVllZJVzRoH3GGBgTzmjwHtQkTPyHhDJaoQlkDmyypksRlgC92SVkVXOGQXeI2cJzDmjwHtQkTPyHhDJaoQlkDmyypksRlgC92SVkVXOGQXeI2cJzDmjwHtQkTPyHhDJaoQlkDmyypksmCSrjKzGGNj3ZJWyBKacUeA9qMgZeQ+cUeQ9BlgCmSSrASYL5sgqI6sxlsA9WaUsgSlnFHgPKnJG3gNnFHkPqE9WBnaarAZYAjmWv4v/K6u+lnbHF/547/q1lraWb9+/8N31tcjqk+hr8fFktYK+Fh9PVjX8Y+fcltsGgTDcy/amt7T/CoPQwTpYkg+J3//RymKqMmrSsd0qlWy+mQiMVhdk/A2wq+Trlyf+3ol1EbVaDTFlsR6iVqsharUeolarIWYC10PU6kEQ6yJOL2q1BsS6iNOLWi2DmAlcD1Gr1RBTFusharUaolbrIWq1GmbLBGqqhaMmLf41Uauo1YoR9zOgEI4Cg3iLXhtxJ1GrqNWaEffTgVxrFBLxFsTj9xG1ilotm/kygYSOmxpavEHU6n0Wp9WxKuXh+O0mpNzY6257kIft7o+Rj6jVfCmLFAM3BXp7rTVRKpikyIky0xNgW76VEenadgxlSUbXuRa1+jitdgeUVSVxfvPuqXpbGgmr1abEoTng5d0nola3UiPnRsEI0YJSDSeRgk4zEnUKFKk1boAqCsUKJtCEqJVlWVrtsecmsGqiz/vjFU62u3n/iUfVarZMoBPK7wGNYsMK1CJRqhOM3wSyfDYqIXQiAfKrpYpafZhWEjvX3q7VDqXrP59WM37vCvT+MqAVvBplQVrQa6X5FkdkrFUtriVq9YFancf+uZFl9eJGq11Tnk8SkLKxn18rKbe25V4p95uLVoGRPmB8whG1uhG/UBEMu2N4QJHIxzyF10pdbiUg+6OMuJao1YdptcXhp1cnlM1eYs9aHSrI8+sW2G/tTu8FcluBbTm6mLK8bAIb79UYMD5x4WG1+vz9+3fb2Otnf/VDFvE3GKVMBy3YHWJAgiZasU4Mt/xzP/NrVRO14jqMzoko10Mi7mJRWu0OwGWFOkNu3Gf7SVqpfm3pduXBncJebUzJ4w14fCNRHq1YQcBzbALnfNU2Q52idQaljuE3rYyCWYtWKZCJ60iALE21AlJxF0vSyi5AEpCvbMXxsvBULMcpOCkdwd5t0LgY173otgfKlzDgObSa853AFmmu2Bo9ypS9e7YqFq8VEV25Sx2n0qo7vVqWVnwwAs5eCM5E7LgfaFVdDlGlnIxz5Qp4CQKiVn+rlUGOjDs9N44aQSaQey2IM4EK3dK16lAUaMVVjFPpeGJ3sDSt+IRVhcpM9CkhGUy18qeqXwFPotWsf3SvgdYvUlSkrtQ7gOtWrFIKygZOFaoiU+jF0rVK0bbIBEPaZKr72bQZKW3lGSi9HMF0MJUCqQir4aLPbbDmXwXxRSREIozwLE6rDcpgtfo20Udi6zhOxh2l7Y4Bz6HVrKmynsj3Wk0qL1yhKuOesb1CUe9uKco69wVbtFYEY3yuknIN6nxjkBcZVOIzmVxSCLSqkQfVcL5LhVZuA+wuLjSI8CxRK/mtCc5Wk03gqEqDU3C28hbuOCDWrZ4kAy1uwOU0NWruE0s1NjzUo/h5TlTKBFolUEE1XLTgboqJVmPEErU67diNClvO8nEmUOI11OrMMWh89CvkxmcC/aNbNGFAWAeLWq2BOac3YPD2sBB90DCGdXF7xJovoVYUVMO9l2aq1RixQK12wKGpSlQ/a1IljsGas4VsjqyR3G8bNmrPMVLy8nQGqkayZ2GAf4KJWq2BOafHhWy/z3NC+MbRtYPiNYdgLktOqFX+qxo+Vr9potUYsUCtvr000lpyGl+VaF7HN9SZfSlPHFXJ8rDnsVPFL603cue6/gX2IICfePxycNTqGjqALEAtplq1BJDzKEXPaoRatciCargfn2o1RixSq0Xw6ZEQ62LG6Q3QqUWjEBOteujaCLrYlNdIRaiVRh9Uww3eXq3GiKhV1GpxzDi9HB03HZSZaJXz1e/fNLLRFUcLCqrhHFy7204r1+/CiAVnAm8jahW1uoLOe8JeTLRS6Lw+3EBz67UyA1AH1XDu8v3CaVXwsNEgFxG1ilotlPmmNyD1HRQTrVJXiVIXjxRabhOgSO0oyFoVVsOFRl5oUkhYVeRa5URBRNQqarU45puepk44EiL/fsTYDLnKksylCA3bxW1OFl20ggmr4SIlypKLkJ2VahCafkVEraJWy+O/T69AL66BtbqRqNXjINbF/55eCi2uIGoVtVoT/3d65tp/cBO1+sGO3eM0FANRGLUSwk+FlBewRmkQEvvfIrwU1HTMdc7ZwejTLWyzSvLP5318fc6/uV7NyqxSOM+sEswszjOrBDOL88wqwcziPLNKMLM4z6wSzCzOM6sEM4vzzCrBzOI8s0owszjPrO7V6zaId1Gxla0Og3Tbu4qtHKpOg3Aq9nKqquMgm4rNvNSPyyCair281e7svRtNxWaOtfNrkU3FXh7qxns3morNPNXOezebir081o33bjQVmznXr/MglIod1QDMCrozqxU8D1oxqxWo2IwgK1CxGUFWoGIzgoBZQX9mtQI/gc2Y1QpUbEaQFajYjCArULEZQcCsoD+z+mbHjmkACGIYCEZPIvyZPohr7GiGwsqNwaxwsOczqwtUDCPIBSqGEeQCFcMIAmYF+czqAk9gGLO6QMUwglygYhhBLlAxjCBgVpDPrC7wBIYxqwtUDCPIBSqGEeQCFcMIAmYF+czqAk9gGLO6QMUwglygYphv6GdWD7bLIG2B7TJIW2C7DNIW2C6DtAW2yyBtge0ySFtguwzSFtgug7QFtssgbYHtMkhbYLsM0hbYLoO0BbbLIG2B7fKzZ0c7bsJAFED9F1e6Y8nGhgcUAf//d8VJY5lWTQq7VZkw52E1jLQvczWjJDhj0SoAXZyxaBWALs5YtApAF2f+cbSTVCNeWWKQfsEe14kWujjzj6P1eUXG9e+EP0s9Q4zCCa05JrxymWjxBX91sUQ8jrjA7LfOFK3Q47WBA1bTvv8rLhEtjmov1qszJbS1+itnivZ9aMI2cFurb5t9e7F+n6et1X+Hg2poSbLP4oExinQopkGknwEIJxRtcxZSJOO1S0SL4+rFsrU6JRxUQ/OMQvG4UbrIDGBkGLqeA9Cxn1A0zbEjh27Ga5eIFofVi9WcqTlKiI+mH/q1lR4JLRKxzxVmv3WmaJ9rxd4DKfQABo5rJaWfS9mT8QagadqHwArH1YtVz9TEfsgMvrQCY5flMemR4rHPFWa/daZo61qNABbe7g95rWasJubSFlJGNE1bqwpfUC9WnWdJYeYA+BCmmtD64LHPJWa/daZon2sVEoDIhFWQZ1XKYozk1DRtrSoc11ysdp6JPTBwqQmlniN2u8Dst84U7XOtBKtAKSgQyrN86BhRm7ZW37NW9WI185xuSxCgp68JZS444uNnv3WmaDdrJezullqt5YNnaJq2VhW+rGOs85yF/OVsCUlJOOTDZ791pmg3axXvD7Vqecq9ae+tvn2tPMNzngvzlCC/rNVtYMYhHz77rTNFu1mrucY3s0/PshQpsmubEE545xLR4ss86xpJeH53zVxQE0rCG4748NlvnSnazVohU4YuiwcGMnalTGSfY2BE0wQ6Sl7wxhWixWHtxXqcqUQmYKYAI5tfAsuT/cD+zpmiFbmvlQjublFCP5TWmEWklLdSxBlom8AQxF4Hr3Bce7EeZ6qctRiCAFjI2GVJj8PX0V4Hv3OmaPexaL9z9s3Fep6pTiT7HBKAMZcLl34evn7nEbvE7LdOFe0+Fq3N/jKgi/sk0MUZi1YB6OKMRasAdHHGolUAujhj0SoAXZyxaBWALs5YtApAF2csWgWgizMWrQLQxRmLVgHo4oxFqwB0ccaiVQC6OGPRKgBdnLFoFYAuzli0CkAXZyzaHxsCQHxoAYZRMBq1dAUA7yhhuzZnSfIAAAAASUVORK5CYII=;" vertex="1" parent="1">
                    <mxGeometry x="180" y="150" width="854" height="715" as="geometry"/>
                </mxCell>
            </root>
        </mxGraphModel>
    </diagram>
</mxfile>